<?xml version="1.0" standalone="no"?>
<!DOCTYPE svg PUBLIC "-//W3C//DTD SVG 20010904//EN"
 "http://www.w3.org/TR/2001/REC-SVG-20010904/DTD/svg10.dtd">
<svg version="1.0" xmlns="http://www.w3.org/2000/svg"
 width="750.000000pt" height="750.000000pt" viewBox="0 0 750.000000 750.000000"
 preserveAspectRatio="xMidYMid meet">

<g transform="translate(0.000000,750.000000) scale(0.100000,-0.100000)"
fill="#000000" stroke="none">
<path d="M0 3750 l0 -3750 3750 0 3750 0 0 3750 0 3750 -3750 0 -3750 0 0
-3750z m4039 1605 c199 -29 375 -82 536 -162 318 -159 491 -368 525 -632 16
-123 -6 -189 -79 -238 l-34 -23 -1234 0 c-1359 0 -1260 -5 -1320 63 -38 43
-46 95 -34 204 25 213 158 399 397 555 170 110 318 168 555 217 133 27 161 30
363 30 146 1 254 -4 325 -14z m-741 -1345 c4 -106 0 -110 -119 -110 -85 0 -87
-1 -93 -26 -8 -29 1 -65 18 -76 6 -4 45 -8 87 -8 45 0 80 -5 87 -12 16 -16 16
-160 0 -176 -7 -7 -42 -12 -88 -12 -41 0 -81 -4 -89 -9 -15 -10 -17 -99 -3
-113 4 -4 51 -10 105 -14 113 -8 115 -10 115 -99 0 -107 4 -105 -229 -105
-160 0 -203 3 -215 14 -19 20 -21 792 -1 817 18 24 29 25 236 19 l186 -5 3
-85z m498 66 c97 -45 140 -146 131 -309 -6 -117 -26 -172 -79 -228 -49 -52
-93 -72 -173 -78 l-70 -6 -3 -89 c-2 -50 -8 -96 -14 -103 -7 -9 -39 -13 -103
-13 -75 0 -94 3 -99 16 -10 26 -7 798 4 814 11 18 107 26 254 23 80 -2 109 -7
152 -27z m858 15 c15 -17 17 -35 14 -115 -1 -52 -6 -98 -11 -102 -4 -4 -33
-11 -65 -15 -43 -6 -62 -14 -79 -33 -43 -51 -53 -189 -19 -271 17 -40 72 -75
119 -75 20 0 39 -5 43 -11 9 -15 9 -168 0 -196 -9 -29 -42 -37 -109 -29 -87
12 -127 28 -178 74 -73 66 -108 145 -122 277 -24 238 30 389 171 472 53 31 89
41 163 42 43 1 60 -3 73 -18z m-460 -6 c11 -30 6 -808 -6 -822 -7 -9 -38 -13
-96 -13 -133 0 -122 -37 -122 422 0 249 4 396 10 409 10 17 22 19 109 19 80 0
100 -3 105 -15z m834 -1075 c61 -45 77 -84 76 -180 -1 -109 -34 -188 -104
-254 -95 -89 30 -81 -1240 -84 l-1124 -2 -51 24 c-66 33 -128 95 -159 159 -31
65 -43 174 -26 237 14 53 75 116 117 123 15 2 579 4 1253 3 l1225 -1 33 -25z"/>
<path d="M3502 5264 c-399 -51 -747 -223 -906 -448 -76 -108 -106 -195 -106
-313 0 -65 2 -73 26 -92 27 -21 28 -21 1236 -21 l1209 0 24 25 c21 21 25 33
25 89 0 123 -65 274 -166 385 -92 103 -316 238 -489 295 -255 85 -580 116
-853 80z m156 -36 c30 -30 0 -85 -41 -74 -31 7 -46 48 -27 71 15 18 51 20 68
3z m464 -95 c10 -9 18 -23 18 -31 0 -18 -28 -52 -43 -52 -19 0 -47 33 -47 55
0 43 39 58 72 28z m-1030 -110 c10 -9 18 -23 18 -31 0 -19 -29 -52 -46 -52
-20 0 -44 29 -44 54 0 43 39 59 72 29z m1406 -9 c25 -17 28 -41 8 -66 -26 -35
-76 -16 -76 28 0 21 23 54 38 54 4 0 18 -7 30 -16z m-994 -140 c36 -35 9 -92
-39 -80 -33 8 -44 50 -20 76 22 24 38 25 59 4z m-629 -188 c27 -41 -13 -89
-55 -66 -26 14 -27 65 -2 79 27 16 40 13 57 -13z m1537 -22 c14 -31 1 -57 -31
-62 -28 -4 -51 14 -51 42 0 50 62 65 82 20z"/>
<path d="M3616 3878 c-24 -34 -22 -149 3 -179 16 -20 22 -22 45 -11 31 14 40
45 34 117 -7 83 -49 120 -82 73z"/>
<path d="M2512 2924 c-19 -13 -22 -24 -22 -88 0 -115 45 -192 135 -235 45 -21
48 -21 1125 -21 l1081 0 47 24 c89 45 131 118 132 227 0 56 -3 69 -23 87 l-23
22 -1215 0 c-1083 0 -1217 -2 -1237 -16z m618 -99 c7 -8 10 -25 6 -39 -3 -14
-2 -28 4 -31 17 -11 11 -43 -12 -59 -13 -9 -43 -16 -70 -16 l-48 0 0 80 0 80
54 0 c35 0 58 -5 66 -15z m192 -42 c3 -50 6 -58 23 -58 17 0 20 8 23 58 3 53
5 57 27 57 24 0 25 -3 25 -57 0 -44 -5 -62 -22 -80 -28 -30 -74 -30 -105 -1
-19 18 -23 32 -23 80 0 55 1 58 25 58 22 0 24 -4 27 -57z m350 40 c21 -19 23
-45 6 -73 -10 -15 -10 -22 0 -32 19 -19 14 -38 -11 -38 -16 0 -28 9 -35 25
-14 31 -30 32 -34 3 -2 -15 -11 -24 -25 -26 -22 -3 -23 -1 -23 77 l0 81 52 0
c34 0 58 -6 70 -17z m283 -8 c0 -17 -6 -20 -37 -17 -28 3 -39 -1 -47 -17 -14
-24 -5 -48 20 -56 25 -8 39 1 39 26 0 33 34 19 38 -16 4 -35 -18 -55 -64 -55
-76 0 -114 82 -63 136 19 21 31 24 69 22 37 -3 45 -6 45 -23z m270 5 c0 -10
-13 -16 -42 -18 -55 -4 -56 -22 -2 -22 33 0 40 -3 37 -17 -2 -13 -14 -19 -41
-21 -53 -5 -46 -22 9 -22 38 0 45 -3 42 -17 -3 -15 -16 -19 -66 -21 l-62 -3 0
81 0 81 63 -3 c47 -2 62 -7 62 -18z m262 -6 c16 -24 16 -29 1 -54 -14 -24 -14
-31 -2 -48 15 -22 9 -32 -18 -32 -10 0 -24 11 -30 25 -13 30 -32 28 -36 -3 -2
-14 -11 -22 -23 -22 -17 0 -19 8 -19 80 l0 80 55 0 c48 0 57 -3 72 -26z"/>
<path d="M3050 2790 c0 -5 9 -10 19 -10 11 0 23 5 26 10 4 6 -5 10 -19 10 -14
0 -26 -4 -26 -10z"/>
<path d="M3050 2730 c0 -5 11 -10 25 -10 14 0 25 5 25 10 0 6 -11 10 -25 10
-14 0 -25 -4 -25 -10z"/>
<path d="M3600 2779 c0 -14 5 -19 17 -17 26 5 29 38 4 38 -15 0 -21 -6 -21
-21z"/>
<path d="M4400 2779 c0 -15 5 -20 22 -17 34 5 37 38 4 38 -20 0 -26 -5 -26
-21z"/>
</g>
</svg>
